<svg width="36" height="36" viewBox="0 0 36 36" fill="none" xmlns="http://www.w3.org/2000/svg">
<circle cx="18" cy="18" r="18" fill="#27A9DC"/>
<path d="M18 9C13.0375 9 9.00006 13.0375 9.00006 18C9.00006 19.5496 9.40036 21.0733 10.1595 22.4178L9.01454 26.503C8.97697 26.6373 9.01336 26.7813 9.11041 26.881C9.18514 26.9581 9.28688 27 9.39136 27C9.42267 27 9.45436 26.9961 9.48527 26.9887L13.7489 25.9325C15.0508 26.6314 16.517 27 18 27C22.9625 27 27 22.9625 27 18C27 13.0375 22.9625 9 18 9ZM22.5274 21.1758C22.3349 21.7088 21.4114 22.1952 20.9677 22.2605C20.5693 22.3188 20.0653 22.3439 19.512 22.1701C19.1767 22.0645 18.7462 21.9244 18.1949 21.6892C15.8772 20.7008 14.3636 18.3964 14.2478 18.2442C14.1324 18.092 13.3044 17.0073 13.3044 15.8846C13.3044 14.762 13.9011 14.2098 14.1132 13.9813C14.3253 13.7528 14.5753 13.6957 14.7295 13.6957C14.8837 13.6957 15.0375 13.6976 15.1725 13.7039C15.3145 13.7109 15.5051 13.6503 15.6925 14.0956C15.885 14.5526 16.3472 15.6753 16.4043 15.7899C16.4622 15.9042 16.5006 16.0376 16.4239 16.1898C16.3472 16.342 16.3088 16.4371 16.193 16.5706C16.0772 16.704 15.9504 16.868 15.8463 16.9705C15.7305 17.0843 15.6103 17.2076 15.7449 17.4361C15.8796 17.6647 16.3433 18.4117 17.0304 19.0166C17.9128 19.7937 18.6574 20.0348 18.8883 20.149C19.1192 20.2633 19.2542 20.2441 19.3888 20.0919C19.5234 19.9393 19.9663 19.4255 20.1201 19.1974C20.2739 18.9693 20.4281 19.0068 20.6401 19.0831C20.8522 19.159 21.9882 19.7108 22.2191 19.825C22.4499 19.9393 22.6041 19.9964 22.662 20.0915C22.7199 20.1862 22.7199 20.6433 22.5274 21.1758Z" fill="white"/>
</svg>
