<svg width="21" height="20" viewBox="0 0 21 20" fill="none" xmlns="http://www.w3.org/2000/svg">
<path fill-rule="evenodd" clip-rule="evenodd" d="M10.0256 0C4.7173 0 0.414062 4.20819 0.414062 9.39926C0.414062 14.5903 4.7173 18.7985 10.0256 18.7985C12.2959 18.7985 14.3824 18.0287 16.027 16.7415L19.1511 19.7886L19.2342 19.8586C19.5243 20.0685 19.9355 20.0446 20.1979 19.7873C20.4866 19.5043 20.486 19.0459 20.1966 18.7636L17.1092 15.7523C18.679 14.0794 19.6371 11.8487 19.6371 9.39926C19.6371 4.20819 15.3339 0 10.0256 0ZM10.0256 1.44774C14.5163 1.44774 18.1567 5.00776 18.1567 9.39926C18.1567 13.7908 14.5163 17.3508 10.0256 17.3508C5.53492 17.3508 1.8945 13.7908 1.8945 9.39926C1.8945 5.00776 5.53492 1.44774 10.0256 1.44774Z" fill="currentColor"/>
</svg>
